<svg xmlns="http://www.w3.org/2000/svg" width="40.0" height="69.28203230275508" viewBox="0 0 40.0 69.28203230275508"><g stroke="#c8d0e0" stroke-width="0.7" fill="none"><line x1="80.0" y1="-34.64" x2="80.0" y2="0.0"/><line x1="-180.0" y1="-103.92" x2="-150.0" y2="-86.6"/><line x1="90.0" y1="-51.96" x2="120.0" y2="-69.28"/><line x1="-50.0" y1="86.6" x2="-20.0" y2="103.92"/><line x1="-40.0" y1="207.85" x2="-20.0" y2="173.21"/><line x1="130.0" y1="155.88" x2="160.0" y2="138.56"/><line x1="180.0" y1="0.0" x2="180.0" y2="34.64"/><line x1="-80.0" y1="0.0" x2="-40.0" y2="0.0"/><line x1="140.0" y1="138.56" x2="140.0" y2="173.21"/><line x1="120.0" y1="-69.28" x2="150.0" y2="-86.6"/><line x1="0.0" y1="0.0" x2="0.0" y2="34.64"/><line x1="260.0" y1="103.92" x2="280.0" y2="138.56"/><line x1="80.0" y1="138.56" x2="120.0" y2="138.56"/><line x1="280.0" y1="207.85" x2="320.0" y2="207.85"/><line x1="-40.0" y1="69.28" x2="-20.0" y2="34.64"/><line x1="-80.0" y1="-69.28" x2="-50.0" y2="-51.96"/><line x1="20.0" y1="-34.64" x2="60.0" y2="-34.64"/><line x1="210.0" y1="-17.32" x2="240.0" y2="0.0"/><line x1="280.0" y1="0.0" x2="300.0" y2="34.64"/><line x1="-60.0" y1="103.92" x2="-30.0" y2="86.6"/><line x1="340.0" y1="173.21" x2="370.0" y2="190.53"/><line x1="250.0" y1="-17.32" x2="280.0" y2="0.0"/><line x1="30.0" y1="86.6" x2="60.0" y2="103.92"/><line x1="60.0" y1="-103.92" x2="60.0" y2="-69.28"/><line x1="90.0" y1="-17.32" x2="120.0" y2="0.0"/><line x1="220.0" y1="-103.92" x2="260.0" y2="-103.92"/><line x1="-40.0" y1="69.28" x2="-40.0" y2="103.92"/><line x1="20.0" y1="103.92" x2="20.0" y2="138.56"/><line x1="360.0" y1="138.56" x2="380.0" y2="103.92"/><line x1="100.0" y1="34.64" x2="130.0" y2="51.96"/><line x1="280.0" y1="138.56" x2="280.0" y2="173.21"/><line x1="-40.0" y1="207.85" x2="0.0" y2="207.85"/><line x1="50.0" y1="-86.6" x2="80.0" y2="-69.28"/><line x1="140.0" y1="-69.28" x2="140.0" y2="-34.64"/><line x1="20.0" y1="34.64" x2="20.0" y2="69.28"/><line x1="200.0" y1="138.56" x2="200.0" y2="173.21"/><line x1="-220.0" y1="-103.92" x2="-180.0" y2="-103.92"/><line x1="200.0" y1="0.0" x2="230.0" y2="17.32"/><line x1="340.0" y1="103.92" x2="360.0" y2="69.28"/><line x1="-50.0" y1="121.24" x2="-20.0" y2="103.92"/><line x1="40.0" y1="34.64" x2="40.0" y2="69.28"/><line x1="80.0" y1="0.0" x2="80.0" y2="34.64"/><line x1="220.0" y1="173.21" x2="220.0" y2="207.85"/><line x1="350.0" y1="190.53" x2="380.0" y2="173.21"/><line x1="120.0" y1="-69.28" x2="150.0" y2="-51.96"/><line x1="220.0" y1="103.92" x2="250.0" y2="86.6"/><line x1="240.0" y1="69.28" x2="270.0" y2="86.6"/><line x1="260.0" y1="-34.64" x2="300.0" y2="-34.64"/><line x1="380.0" y1="173.21" x2="400.0" y2="138.56"/><line x1="-130.0" y1="-86.6" x2="-100.0" y2="-103.92"/><line x1="200.0" y1="0.0" x2="230.0" y2="-17.32"/><line x1="120.0" y1="0.0" x2="150.0" y2="-17.32"/><line x1="0.0" y1="69.28" x2="40.0" y2="69.28"/><line x1="280.0" y1="207.85" x2="300.0" y2="173.21"/><line x1="-80.0" y1="0.0" x2="-60.0" y2="-34.64"/><line x1="330.0" y1="190.53" x2="360.0" y2="207.85"/><line x1="-80.0" y1="138.56" x2="-50.0" y2="155.88"/><line x1="400.0" y1="138.56" x2="400.0" y2="173.21"/><line x1="-40.0" y1="-69.28" x2="-20.0" y2="-34.64"/><line x1="80.0" y1="207.85" x2="120.0" y2="207.85"/><line x1="320.0" y1="138.56" x2="360.0" y2="138.56"/><line x1="-40.0" y1="103.92" x2="-40.0" y2="138.56"/><line x1="300.0" y1="173.21" x2="340.0" y2="173.21"/><line x1="220.0" y1="138.56" x2="220.0" y2="173.21"/><line x1="-150.0" y1="-86.6" x2="-120.0" y2="-69.28"/><line x1="220.0" y1="103.92" x2="240.0" y2="69.28"/><line x1="-20.0" y1="-34.64" x2="10.0" y2="-17.32"/><line x1="200.0" y1="138.56" x2="240.0" y2="138.56"/><line x1="0.0" y1="138.56" x2="20.0" y2="103.92"/><line x1="-40.0" y1="0.0" x2="-40.0" y2="34.64"/><line x1="50.0" y1="121.24" x2="80.0" y2="138.56"/><line x1="180.0" y1="173.21" x2="180.0" y2="207.85"/><line x1="-20.0" y1="173.21" x2="0.0" y2="207.85"/><line x1="160.0" y1="138.56" x2="180.0" y2="103.92"/><line x1="-120.0" y1="-69.28" x2="-90.0" y2="-51.96"/><line x1="240.0" y1="0.0" x2="260.0" y2="34.64"/><line x1="-100.0" y1="-34.64" x2="-70.0" y2="-51.96"/><line x1="220.0" y1="-103.92" x2="240.0" y2="-69.28"/><line x1="100.0" y1="103.92" x2="100.0" y2="138.56"/><line x1="120.0" y1="0.0" x2="140.0" y2="34.64"/><line x1="10.0" y1="-51.96" x2="40.0" y2="-69.28"/><line x1="40.0" y1="0.0" x2="60.0" y2="34.64"/><line x1="-20.0" y1="-103.92" x2="10.0" y2="-86.6"/><line x1="80.0" y1="-69.28" x2="110.0" y2="-86.6"/><line x1="-30.0" y1="51.96" x2="0.0" y2="69.28"/><line x1="280.0" y1="138.56" x2="300.0" y2="103.92"/><line x1="380.0" y1="103.92" x2="400.0" y2="138.56"/><line x1="0.0" y1="-69.28" x2="40.0" y2="-69.28"/><line x1="200.0" y1="138.56" x2="220.0" y2="103.92"/><line x1="20.0" y1="173.21" x2="40.0" y2="207.85"/><line x1="260.0" y1="173.21" x2="260.0" y2="207.85"/><line x1="160.0" y1="0.0" x2="160.0" y2="34.64"/><line x1="300.0" y1="173.21" x2="320.0" y2="207.85"/><line x1="180.0" y1="-34.64" x2="200.0" y2="-69.28"/><line x1="120.0" y1="138.56" x2="140.0" y2="103.92"/><line x1="-190.0" y1="-51.96" x2="-160.0" y2="-69.28"/><line x1="-100.0" y1="34.64" x2="-60.0" y2="34.64"/><line x1="130.0" y1="86.6" x2="160.0" y2="69.28"/><line x1="140.0" y1="173.21" x2="140.0" y2="207.85"/><line x1="220.0" y1="-34.64" x2="250.0" y2="-17.32"/><line x1="-20.0" y1="0.0" x2="-20.0" y2="34.64"/><line x1="-200.0" y1="-69.28" x2="-160.0" y2="-69.28"/><line x1="40.0" y1="-69.28" x2="80.0" y2="-69.28"/><line x1="360.0" y1="69.28" x2="360.0" y2="103.92"/><line x1="-160.0" y1="0.0" x2="-130.0" y2="-17.32"/><line x1="80.0" y1="0.0" x2="110.0" y2="-17.32"/><line x1="180.0" y1="34.64" x2="200.0" y2="0.0"/><line x1="220.0" y1="173.21" x2="240.0" y2="138.56"/><line x1="220.0" y1="173.21" x2="260.0" y2="173.21"/><line x1="220.0" y1="173.21" x2="250.0" y2="155.88"/><line x1="380.0" y1="138.56" x2="380.0" y2="173.21"/><line x1="60.0" y1="173.21" x2="90.0" y2="155.88"/><line x1="20.0" y1="0.0" x2="20.0" y2="34.64"/><line x1="40.0" y1="69.28" x2="70.0" y2="86.6"/><line x1="-140.0" y1="-103.92" x2="-110.0" y2="-86.6"/><line x1="-20.0" y1="173.21" x2="10.0" y2="155.88"/><line x1="260.0" y1="138.56" x2="260.0" y2="173.21"/><line x1="210.0" y1="-51.96" x2="240.0" y2="-69.28"/><line x1="280.0" y1="173.21" x2="280.0" y2="207.85"/><line x1="-160.0" y1="-69.28" x2="-120.0" y2="-69.28"/><line x1="320.0" y1="69.28" x2="360.0" y2="69.28"/><line x1="200.0" y1="173.21" x2="200.0" y2="207.85"/><line x1="140.0" y1="103.92" x2="170.0" y2="86.6"/><line x1="150.0" y1="190.53" x2="180.0" y2="173.21"/><line x1="-110.0" y1="-51.96" x2="-80.0" y2="-69.28"/><line x1="320.0" y1="207.85" x2="360.0" y2="207.85"/><line x1="0.0" y1="-103.92" x2="0.0" y2="-69.28"/><line x1="60.0" y1="34.64" x2="90.0" y2="51.96"/><line x1="250.0" y1="190.53" x2="280.0" y2="207.85"/><line x1="190.0" y1="121.24" x2="220.0" y2="103.92"/><line x1="250.0" y1="51.96" x2="280.0" y2="69.28"/><line x1="-100.0" y1="-103.92" x2="-70.0" y2="-86.6"/><line x1="-20.0" y1="-34.64" x2="20.0" y2="-34.64"/><line x1="220.0" y1="34.64" x2="250.0" y2="51.96"/><line x1="-160.0" y1="0.0" x2="-140.0" y2="34.64"/><line x1="320.0" y1="138.56" x2="320.0" y2="173.21"/><line x1="220.0" y1="103.92" x2="250.0" y2="121.24"/><line x1="-220.0" y1="-103.92" x2="-190.0" y2="-86.6"/><line x1="0.0" y1="207.85" x2="30.0" y2="190.53"/><line x1="220.0" y1="173.21" x2="240.0" y2="207.85"/><line x1="10.0" y1="51.96" x2="40.0" y2="69.28"/><line x1="190.0" y1="-86.6" x2="220.0" y2="-103.92"/><line x1="-170.0" y1="-86.6" x2="-140.0" y2="-103.92"/><line x1="-100.0" y1="103.92" x2="-60.0" y2="103.92"/><line x1="0.0" y1="-34.64" x2="0.0" y2="0.0"/><line x1="140.0" y1="-34.64" x2="170.0" y2="-17.32"/><line x1="320.0" y1="69.28" x2="340.0" y2="34.64"/><line x1="100.0" y1="173.21" x2="120.0" y2="207.85"/><line x1="80.0" y1="34.64" x2="80.0" y2="69.28"/><line x1="110.0" y1="190.53" x2="140.0" y2="173.21"/><line x1="340.0" y1="173.21" x2="340.0" y2="207.85"/><line x1="390.0" y1="190.53" x2="420.0" y2="173.21"/><line x1="-100.0" y1="69.28" x2="-100.0" y2="103.92"/><line x1="-30.0" y1="17.32" x2="0.0" y2="0.0"/><line x1="80.0" y1="173.21" x2="80.0" y2="207.85"/><line x1="120.0" y1="-103.92" x2="120.0" y2="-69.28"/><line x1="400.0" y1="138.56" x2="420.0" y2="173.21"/><line x1="240.0" y1="0.0" x2="270.0" y2="-17.32"/><line x1="-110.0" y1="17.32" x2="-80.0" y2="0.0"/><line x1="-80.0" y1="69.28" x2="-40.0" y2="69.28"/><line x1="160.0" y1="0.0" x2="190.0" y2="-17.32"/><line x1="140.0" y1="173.21" x2="170.0" y2="155.88"/><line x1="330.0" y1="51.96" x2="360.0" y2="69.28"/><line x1="-40.0" y1="-34.64" x2="-40.0" y2="0.0"/><line x1="240.0" y1="138.56" x2="260.0" y2="103.92"/><line x1="340.0" y1="138.56" x2="340.0" y2="173.21"/><line x1="220.0" y1="34.64" x2="250.0" y2="17.32"/><line x1="290.0" y1="86.6" x2="320.0" y2="69.28"/><line x1="330.0" y1="121.24" x2="360.0" y2="138.56"/><line x1="-80.0" y1="-69.28" x2="-40.0" y2="-69.28"/><line x1="-70.0" y1="17.32" x2="-40.0" y2="0.0"/><line x1="260.0" y1="103.92" x2="280.0" y2="69.28"/><line x1="410.0" y1="190.53" x2="440.0" y2="207.85"/><line x1="200.0" y1="69.28" x2="230.0" y2="51.96"/><line x1="60.0" y1="173.21" x2="60.0" y2="207.85"/><line x1="140.0" y1="34.64" x2="170.0" y2="51.96"/><line x1="-80.0" y1="-69.28" x2="-50.0" y2="-86.6"/><line x1="40.0" y1="-69.28" x2="40.0" y2="-34.64"/><line x1="-20.0" y1="103.92" x2="10.0" y2="86.6"/><line x1="-60.0" y1="34.64" x2="-30.0" y2="51.96"/><line x1="-90.0" y1="51.96" x2="-60.0" y2="34.64"/><line x1="300.0" y1="103.92" x2="340.0" y2="103.92"/><line x1="140.0" y1="103.92" x2="160.0" y2="138.56"/><line x1="380.0" y1="173.21" x2="400.0" y2="207.85"/><line x1="170.0" y1="51.96" x2="200.0" y2="69.28"/><line x1="120.0" y1="207.85" x2="140.0" y2="173.21"/><line x1="320.0" y1="103.92" x2="320.0" y2="138.56"/><line x1="-120.0" y1="69.28" x2="-100.0" y2="103.92"/><line x1="40.0" y1="207.85" x2="60.0" y2="173.21"/><line x1="60.0" y1="34.64" x2="100.0" y2="34.64"/><line x1="40.0" y1="-34.64" x2="40.0" y2="0.0"/><line x1="-60.0" y1="173.21" x2="-30.0" y2="155.88"/><line x1="180.0" y1="-69.28" x2="180.0" y2="-34.64"/><line x1="320.0" y1="138.56" x2="340.0" y2="103.92"/><line x1="240.0" y1="173.21" x2="240.0" y2="207.85"/><line x1="-180.0" y1="-34.64" x2="-140.0" y2="-34.64"/><line x1="0.0" y1="103.92" x2="0.0" y2="138.56"/><line x1="-140.0" y1="-34.64" x2="-140.0" y2="0.0"/><line x1="-60.0" y1="69.28" x2="-60.0" y2="103.92"/><line x1="190.0" y1="190.53" x2="220.0" y2="173.21"/><line x1="370.0" y1="190.53" x2="400.0" y2="207.85"/><line x1="30.0" y1="-86.6" x2="60.0" y2="-103.92"/><line x1="120.0" y1="-69.28" x2="120.0" y2="-34.64"/><line x1="160.0" y1="-103.92" x2="160.0" y2="-69.28"/><line x1="-200.0" y1="-69.28" x2="-180.0" y2="-34.64"/><line x1="-40.0" y1="138.56" x2="-10.0" y2="155.88"/><line x1="-10.0" y1="190.53" x2="20.0" y2="173.21"/><line x1="20.0" y1="34.64" x2="50.0" y2="51.96"/><line x1="230.0" y1="51.96" x2="260.0" y2="34.64"/><line x1="-20.0" y1="-103.92" x2="-20.0" y2="-69.28"/><line x1="140.0" y1="-34.64" x2="180.0" y2="-34.64"/><line x1="220.0" y1="34.64" x2="240.0" y2="0.0"/><line x1="60.0" y1="103.92" x2="100.0" y2="103.92"/><line x1="260.0" y1="173.21" x2="280.0" y2="138.56"/><line x1="0.0" y1="207.85" x2="20.0" y2="173.21"/><line x1="180.0" y1="173.21" x2="210.0" y2="190.53"/><line x1="240.0" y1="207.85" x2="260.0" y2="173.21"/><line x1="-70.0" y1="51.96" x2="-40.0" y2="69.28"/><line x1="-120.0" y1="-34.64" x2="-120.0" y2="0.0"/><line x1="-120.0" y1="0.0" x2="-120.0" y2="34.64"/><line x1="210.0" y1="51.96" x2="240.0" y2="69.28"/><line x1="0.0" y1="69.28" x2="0.0" y2="103.92"/><line x1="-160.0" y1="-69.28" x2="-140.0" y2="-34.64"/><line x1="100.0" y1="-34.64" x2="130.0" y2="-17.32"/><line x1="150.0" y1="121.24" x2="180.0" y2="103.92"/><line x1="-100.0" y1="-34.64" x2="-60.0" y2="-34.64"/><line x1="170.0" y1="-51.96" x2="200.0" y2="-69.28"/><line x1="-20.0" y1="-34.64" x2="-20.0" y2="0.0"/><line x1="10.0" y1="17.32" x2="40.0" y2="0.0"/><line x1="240.0" y1="69.28" x2="270.0" y2="51.96"/><line x1="380.0" y1="173.21" x2="410.0" y2="155.88"/><line x1="80.0" y1="-69.28" x2="110.0" y2="-51.96"/><line x1="90.0" y1="121.24" x2="120.0" y2="138.56"/><line x1="40.0" y1="69.28" x2="60.0" y2="34.64"/><line x1="-60.0" y1="103.92" x2="-60.0" y2="138.56"/><line x1="240.0" y1="-69.28" x2="280.0" y2="-69.28"/><line x1="0.0" y1="69.28" x2="30.0" y2="51.96"/><line x1="340.0" y1="173.21" x2="360.0" y2="207.85"/><line x1="-80.0" y1="103.92" x2="-80.0" y2="138.56"/><line x1="-20.0" y1="34.64" x2="0.0" y2="0.0"/><line x1="0.0" y1="34.64" x2="0.0" y2="69.28"/><line x1="70.0" y1="17.32" x2="100.0" y2="34.64"/><line x1="-70.0" y1="121.24" x2="-40.0" y2="138.56"/><line x1="200.0" y1="-69.28" x2="230.0" y2="-51.96"/><line x1="160.0" y1="138.56" x2="200.0" y2="138.56"/><line x1="210.0" y1="121.24" x2="240.0" y2="138.56"/><line x1="-170.0" y1="-17.32" x2="-140.0" y2="-34.64"/><line x1="160.0" y1="138.56" x2="190.0" y2="155.88"/><line x1="300.0" y1="34.64" x2="320.0" y2="0.0"/><line x1="-40.0" y1="69.28" x2="0.0" y2="69.28"/><line x1="280.0" y1="69.28" x2="320.0" y2="69.28"/><line x1="260.0" y1="-103.92" x2="280.0" y2="-69.28"/><line x1="320.0" y1="207.85" x2="340.0" y2="173.21"/><line x1="-20.0" y1="34.64" x2="10.0" y2="17.32"/><line x1="0.0" y1="69.28" x2="30.0" y2="86.6"/><line x1="340.0" y1="69.28" x2="340.0" y2="103.92"/><line x1="-30.0" y1="-51.96" x2="0.0" y2="-69.28"/><line x1="-80.0" y1="-69.28" x2="-60.0" y2="-34.64"/><line x1="60.0" y1="-34.64" x2="90.0" y2="-17.32"/><line x1="250.0" y1="-51.96" x2="280.0" y2="-69.28"/><line x1="280.0" y1="138.56" x2="320.0" y2="138.56"/><line x1="210.0" y1="190.53" x2="240.0" y2="207.85"/><line x1="80.0" y1="-69.28" x2="80.0" y2="-34.64"/><line x1="-40.0" y1="0.0" x2="0.0" y2="0.0"/><line x1="-60.0" y1="-34.64" x2="-30.0" y2="-17.32"/><line x1="-80.0" y1="138.56" x2="-50.0" y2="121.24"/><line x1="320.0" y1="69.28" x2="320.0" y2="103.92"/><line x1="-80.0" y1="138.56" x2="-60.0" y2="173.21"/><line x1="260.0" y1="-34.64" x2="280.0" y2="0.0"/><line x1="160.0" y1="138.56" x2="160.0" y2="173.21"/><line x1="340.0" y1="103.92" x2="380.0" y2="103.92"/><line x1="160.0" y1="69.28" x2="180.0" y2="103.92"/><line x1="-20.0" y1="-34.64" x2="10.0" y2="-51.96"/><line x1="200.0" y1="0.0" x2="240.0" y2="0.0"/><line x1="170.0" y1="-17.32" x2="200.0" y2="0.0"/><line x1="20.0" y1="-34.64" x2="20.0" y2="0.0"/><line x1="260.0" y1="34.64" x2="280.0" y2="69.28"/><line x1="130.0" y1="190.53" x2="160.0" y2="207.85"/><line x1="10.0" y1="-86.6" x2="40.0" y2="-69.28"/><line x1="120.0" y1="-69.28" x2="140.0" y2="-34.64"/><line x1="-60.0" y1="-34.64" x2="-20.0" y2="-34.64"/><line x1="20.0" y1="-69.28" x2="20.0" y2="-34.64"/><line x1="310.0" y1="17.32" x2="340.0" y2="34.64"/><line x1="300.0" y1="173.21" x2="330.0" y2="155.88"/><line x1="-80.0" y1="69.28" x2="-80.0" y2="103.92"/><line x1="-20.0" y1="69.28" x2="-20.0" y2="103.92"/><line x1="-130.0" y1="17.32" x2="-100.0" y2="34.64"/><line x1="-80.0" y1="34.64" x2="-80.0" y2="69.28"/><line x1="200.0" y1="69.28" x2="220.0" y2="103.92"/><line x1="-60.0" y1="34.64" x2="-20.0" y2="34.64"/><line x1="100.0" y1="103.92" x2="130.0" y2="86.6"/><line x1="-40.0" y1="138.56" x2="0.0" y2="138.56"/><line x1="-90.0" y1="-17.32" x2="-60.0" y2="-34.64"/><line x1="-60.0" y1="-34.64" x2="-30.0" y2="-51.96"/><line x1="0.0" y1="69.28" x2="20.0" y2="103.92"/><line x1="-120.0" y1="69.28" x2="-80.0" y2="69.28"/><line x1="140.0" y1="-103.92" x2="170.0" y2="-86.6"/><line x1="-130.0" y1="-51.96" x2="-100.0" y2="-34.64"/><line x1="-120.0" y1="0.0" x2="-80.0" y2="0.0"/><line x1="110.0" y1="86.6" x2="140.0" y2="103.92"/><line x1="-60.0" y1="103.92" x2="-40.0" y2="138.56"/><line x1="90.0" y1="155.88" x2="120.0" y2="138.56"/><line x1="140.0" y1="-103.92" x2="180.0" y2="-103.92"/><line x1="40.0" y1="-103.92" x2="40.0" y2="-69.28"/><line x1="10.0" y1="155.88" x2="40.0" y2="138.56"/><line x1="100.0" y1="138.56" x2="100.0" y2="173.21"/><line x1="60.0" y1="103.92" x2="90.0" y2="86.6"/><line x1="-20.0" y1="34.64" x2="-20.0" y2="69.28"/><line x1="-60.0" y1="-34.64" x2="-60.0" y2="0.0"/><line x1="360.0" y1="103.92" x2="360.0" y2="138.56"/><line x1="360.0" y1="207.85" x2="400.0" y2="207.85"/><line x1="120.0" y1="0.0" x2="140.0" y2="-34.64"/><line x1="160.0" y1="207.85" x2="200.0" y2="207.85"/><line x1="40.0" y1="0.0" x2="60.0" y2="-34.64"/><line x1="280.0" y1="0.0" x2="320.0" y2="0.0"/><line x1="-120.0" y1="69.28" x2="-100.0" y2="34.64"/><line x1="150.0" y1="86.6" x2="180.0" y2="103.92"/><line x1="280.0" y1="207.85" x2="310.0" y2="190.53"/><line x1="240.0" y1="0.0" x2="240.0" y2="34.64"/><line x1="180.0" y1="103.92" x2="220.0" y2="103.92"/><line x1="0.0" y1="0.0" x2="30.0" y2="-17.32"/><line x1="40.0" y1="138.56" x2="70.0" y2="155.88"/><line x1="-70.0" y1="-86.6" x2="-40.0" y2="-69.28"/><line x1="180.0" y1="173.21" x2="200.0" y2="207.85"/><line x1="-100.0" y1="-34.64" x2="-80.0" y2="0.0"/><line x1="-200.0" y1="-69.28" x2="-180.0" y2="-103.92"/><line x1="240.0" y1="69.28" x2="260.0" y2="103.92"/><line x1="70.0" y1="-86.6" x2="100.0" y2="-103.92"/><line x1="200.0" y1="207.85" x2="240.0" y2="207.85"/><line x1="380.0" y1="103.92" x2="380.0" y2="138.56"/><line x1="-10.0" y1="-86.6" x2="20.0" y2="-103.92"/><line x1="170.0" y1="17.32" x2="200.0" y2="0.0"/><line x1="280.0" y1="138.56" x2="310.0" y2="155.88"/><line x1="-20.0" y1="34.64" x2="10.0" y2="51.96"/><line x1="80.0" y1="69.28" x2="100.0" y2="103.92"/><line x1="0.0" y1="0.0" x2="20.0" y2="-34.64"/><line x1="-50.0" y1="190.53" x2="-20.0" y2="173.21"/><line x1="60.0" y1="-103.92" x2="100.0" y2="-103.92"/><line x1="110.0" y1="121.24" x2="140.0" y2="103.92"/><line x1="360.0" y1="138.56" x2="380.0" y2="173.21"/><line x1="-160.0" y1="-34.64" x2="-160.0" y2="0.0"/><line x1="160.0" y1="173.21" x2="160.0" y2="207.85"/><line x1="-160.0" y1="-69.28" x2="-140.0" y2="-103.92"/><line x1="230.0" y1="-17.32" x2="260.0" y2="-34.64"/><line x1="230.0" y1="17.32" x2="260.0" y2="34.64"/><line x1="270.0" y1="17.32" x2="300.0" y2="34.64"/><line x1="-40.0" y1="207.85" x2="-10.0" y2="190.53"/><line x1="140.0" y1="173.21" x2="160.0" y2="138.56"/><line x1="-120.0" y1="34.64" x2="-120.0" y2="69.28"/><line x1="-40.0" y1="-103.92" x2="-40.0" y2="-69.28"/><line x1="80.0" y1="0.0" x2="120.0" y2="0.0"/><line x1="-120.0" y1="-69.28" x2="-100.0" y2="-34.64"/><line x1="40.0" y1="138.56" x2="70.0" y2="121.24"/><line x1="100.0" y1="34.64" x2="130.0" y2="17.32"/><line x1="160.0" y1="-69.28" x2="180.0" y2="-34.64"/><line x1="80.0" y1="-69.28" x2="120.0" y2="-69.28"/><line x1="30.0" y1="155.88" x2="60.0" y2="173.21"/><line x1="-100.0" y1="-34.64" x2="-100.0" y2="0.0"/><line x1="80.0" y1="69.28" x2="100.0" y2="34.64"/><line x1="330.0" y1="155.88" x2="360.0" y2="138.56"/><line x1="-160.0" y1="0.0" x2="-140.0" y2="-34.64"/><line x1="250.0" y1="121.24" x2="280.0" y2="138.56"/><line x1="-60.0" y1="-103.92" x2="-60.0" y2="-69.28"/><line x1="40.0" y1="69.28" x2="70.0" y2="51.96"/><line x1="350.0" y1="121.24" x2="380.0" y2="103.92"/><line x1="-40.0" y1="-69.28" x2="-20.0" y2="-103.92"/><line x1="200.0" y1="-69.28" x2="220.0" y2="-34.64"/><line x1="240.0" y1="-69.28" x2="270.0" y2="-51.96"/><line x1="220.0" y1="69.28" x2="220.0" y2="103.92"/><line x1="-10.0" y1="17.32" x2="20.0" y2="34.64"/><line x1="340.0" y1="103.92" x2="370.0" y2="86.6"/><line x1="130.0" y1="51.96" x2="160.0" y2="69.28"/><line x1="-90.0" y1="17.32" x2="-60.0" y2="34.64"/><line x1="-60.0" y1="34.64" x2="-30.0" y2="17.32"/><line x1="-80.0" y1="-34.64" x2="-80.0" y2="0.0"/><line x1="220.0" y1="34.64" x2="260.0" y2="34.64"/><line x1="-40.0" y1="34.64" x2="-40.0" y2="69.28"/><line x1="100.0" y1="34.64" x2="120.0" y2="69.28"/><line x1="80.0" y1="138.56" x2="100.0" y2="103.92"/><line x1="210.0" y1="17.32" x2="240.0" y2="0.0"/><line x1="100.0" y1="34.64" x2="140.0" y2="34.64"/><line x1="250.0" y1="17.32" x2="280.0" y2="0.0"/><line x1="200.0" y1="-69.28" x2="230.0" y2="-86.6"/><line x1="280.0" y1="69.28" x2="300.0" y2="34.64"/><line x1="160.0" y1="69.28" x2="200.0" y2="69.28"/><line x1="-130.0" y1="-17.32" x2="-100.0" y2="-34.64"/><line x1="70.0" y1="-51.96" x2="100.0" y2="-34.64"/><line x1="-100.0" y1="0.0" x2="-100.0" y2="34.64"/><line x1="350.0" y1="86.6" x2="380.0" y2="103.92"/><line x1="260.0" y1="34.64" x2="280.0" y2="0.0"/><line x1="420.0" y1="173.21" x2="440.0" y2="207.85"/><line x1="-60.0" y1="-34.64" x2="-40.0" y2="0.0"/><line x1="-80.0" y1="-69.28" x2="-60.0" y2="-103.92"/><line x1="280.0" y1="69.28" x2="280.0" y2="103.92"/><line x1="20.0" y1="34.64" x2="50.0" y2="17.32"/><line x1="-40.0" y1="138.56" x2="-10.0" y2="121.24"/><line x1="-40.0" y1="138.56" x2="-20.0" y2="173.21"/><line x1="-20.0" y1="103.92" x2="0.0" y2="138.56"/><line x1="290.0" y1="17.32" x2="320.0" y2="0.0"/><line x1="-70.0" y1="-51.96" x2="-40.0" y2="-69.28"/><line x1="120.0" y1="69.28" x2="150.0" y2="86.6"/><line x1="50.0" y1="86.6" x2="80.0" y2="69.28"/><line x1="260.0" y1="-34.64" x2="280.0" y2="-69.28"/><line x1="-80.0" y1="-69.28" x2="-80.0" y2="-34.64"/><line x1="200.0" y1="69.28" x2="240.0" y2="69.28"/><line x1="70.0" y1="155.88" x2="100.0" y2="173.21"/><line x1="240.0" y1="0.0" x2="260.0" y2="-34.64"/><line x1="-60.0" y1="-103.92" x2="-20.0" y2="-103.92"/><line x1="260.0" y1="34.64" x2="290.0" y2="51.96"/><line x1="160.0" y1="69.28" x2="180.0" y2="34.64"/><line x1="0.0" y1="138.56" x2="0.0" y2="173.21"/><line x1="340.0" y1="173.21" x2="370.0" y2="155.88"/><line x1="300.0" y1="34.64" x2="330.0" y2="51.96"/><line x1="100.0" y1="-34.64" x2="130.0" y2="-51.96"/><line x1="-140.0" y1="-69.28" x2="-140.0" y2="-34.64"/><line x1="-30.0" y1="121.24" x2="0.0" y2="138.56"/><line x1="0.0" y1="-69.28" x2="30.0" y2="-51.96"/><line x1="0.0" y1="69.28" x2="20.0" y2="34.64"/><line x1="280.0" y1="69.28" x2="310.0" y2="51.96"/><line x1="140.0" y1="103.92" x2="160.0" y2="69.28"/><line x1="200.0" y1="103.92" x2="200.0" y2="138.56"/><line x1="20.0" y1="103.92" x2="40.0" y2="138.56"/><line x1="120.0" y1="-69.28" x2="140.0" y2="-103.92"/><line x1="220.0" y1="-34.64" x2="250.0" y2="-51.96"/><line x1="-170.0" y1="-51.96" x2="-140.0" y2="-34.64"/><line x1="220.0" y1="103.92" x2="260.0" y2="103.92"/><line x1="-160.0" y1="0.0" x2="-120.0" y2="0.0"/><line x1="300.0" y1="103.92" x2="300.0" y2="138.56"/><line x1="-130.0" y1="51.96" x2="-100.0" y2="34.64"/><line x1="30.0" y1="17.32" x2="60.0" y2="34.64"/><line x1="20.0" y1="103.92" x2="50.0" y2="121.24"/><line x1="280.0" y1="-69.28" x2="300.0" y2="-34.64"/><line x1="-40.0" y1="69.28" x2="-10.0" y2="86.6"/><line x1="300.0" y1="69.28" x2="300.0" y2="103.92"/><line x1="20.0" y1="-34.64" x2="50.0" y2="-17.32"/><line x1="200.0" y1="69.28" x2="220.0" y2="34.64"/><line x1="80.0" y1="207.85" x2="100.0" y2="173.21"/><line x1="40.0" y1="-69.28" x2="60.0" y2="-34.64"/><line x1="0.0" y1="-69.28" x2="0.0" y2="-34.64"/><line x1="50.0" y1="190.53" x2="80.0" y2="207.85"/><line x1="-100.0" y1="34.64" x2="-100.0" y2="69.28"/><line x1="30.0" y1="-51.96" x2="60.0" y2="-34.64"/><line x1="100.0" y1="-34.64" x2="120.0" y2="0.0"/><line x1="280.0" y1="103.92" x2="280.0" y2="138.56"/><line x1="40.0" y1="0.0" x2="70.0" y2="17.32"/><line x1="60.0" y1="34.64" x2="90.0" y2="17.32"/><line x1="-60.0" y1="103.92" x2="-40.0" y2="69.28"/><line x1="280.0" y1="69.28" x2="310.0" y2="86.6"/><line x1="-90.0" y1="-51.96" x2="-60.0" y2="-34.64"/><line x1="220.0" y1="-34.64" x2="260.0" y2="-34.64"/><line x1="20.0" y1="-103.92" x2="50.0" y2="-86.6"/><line x1="-140.0" y1="-34.64" x2="-120.0" y2="0.0"/><line x1="160.0" y1="207.85" x2="180.0" y2="173.21"/><line x1="230.0" y1="155.88" x2="260.0" y2="173.21"/><line x1="160.0" y1="138.56" x2="190.0" y2="121.24"/><line x1="120.0" y1="69.28" x2="160.0" y2="69.28"/><line x1="-60.0" y1="-103.92" x2="-40.0" y2="-69.28"/><line x1="170.0" y1="190.53" x2="200.0" y2="207.85"/><line x1="-160.0" y1="-69.28" x2="-160.0" y2="-34.64"/><line x1="140.0" y1="-34.64" x2="170.0" y2="-51.96"/><line x1="10.0" y1="121.24" x2="40.0" y2="138.56"/><line x1="-60.0" y1="-69.28" x2="-60.0" y2="-34.64"/><line x1="270.0" y1="190.53" x2="300.0" y2="173.21"/><line x1="100.0" y1="103.92" x2="120.0" y2="138.56"/><line x1="280.0" y1="138.56" x2="310.0" y2="121.24"/><line x1="-80.0" y1="138.56" x2="-60.0" y2="103.92"/><line x1="200.0" y1="207.85" x2="220.0" y2="173.21"/><line x1="-100.0" y1="103.92" x2="-80.0" y2="138.56"/><line x1="50.0" y1="-17.32" x2="80.0" y2="0.0"/><line x1="220.0" y1="-103.92" x2="250.0" y2="-86.6"/><line x1="100.0" y1="103.92" x2="130.0" y2="121.24"/><line x1="20.0" y1="173.21" x2="60.0" y2="173.21"/><line x1="220.0" y1="103.92" x2="220.0" y2="138.56"/><line x1="260.0" y1="69.28" x2="260.0" y2="103.92"/><line x1="-30.0" y1="-86.6" x2="0.0" y2="-69.28"/><line x1="80.0" y1="0.0" x2="100.0" y2="34.64"/><line x1="240.0" y1="69.28" x2="260.0" y2="34.64"/><line x1="310.0" y1="155.88" x2="340.0" y2="173.21"/><line x1="90.0" y1="-86.6" x2="120.0" y2="-69.28"/><line x1="40.0" y1="138.56" x2="60.0" y2="173.21"/><line x1="130.0" y1="-51.96" x2="160.0" y2="-69.28"/><line x1="220.0" y1="-34.64" x2="220.0" y2="0.0"/><line x1="220.0" y1="0.0" x2="220.0" y2="34.64"/><line x1="-160.0" y1="-103.92" x2="-160.0" y2="-69.28"/><line x1="-150.0" y1="-17.32" x2="-120.0" y2="0.0"/><line x1="240.0" y1="138.56" x2="280.0" y2="138.56"/><line x1="-60.0" y1="173.21" x2="-40.0" y2="138.56"/><line x1="-60.0" y1="173.21" x2="-20.0" y2="173.21"/><line x1="-30.0" y1="155.88" x2="0.0" y2="138.56"/><line x1="340.0" y1="34.64" x2="340.0" y2="69.28"/><line x1="90.0" y1="86.6" x2="120.0" y2="69.28"/><line x1="140.0" y1="-34.64" x2="160.0" y2="0.0"/><line x1="-50.0" y1="-86.6" x2="-20.0" y2="-103.92"/><line x1="-20.0" y1="138.56" x2="-20.0" y2="173.21"/><line x1="60.0" y1="-34.64" x2="80.0" y2="0.0"/><line x1="0.0" y1="173.21" x2="0.0" y2="207.85"/><line x1="60.0" y1="103.92" x2="90.0" y2="121.24"/><line x1="140.0" y1="34.64" x2="170.0" y2="17.32"/><line x1="260.0" y1="173.21" x2="300.0" y2="173.21"/><line x1="-40.0" y1="0.0" x2="-10.0" y2="17.32"/><line x1="100.0" y1="-103.92" x2="130.0" y2="-86.6"/><line x1="230.0" y1="86.6" x2="260.0" y2="103.92"/><line x1="140.0" y1="173.21" x2="180.0" y2="173.21"/><line x1="80.0" y1="-69.28" x2="100.0" y2="-34.64"/><line x1="0.0" y1="138.56" x2="20.0" y2="173.21"/><line x1="-180.0" y1="-103.92" x2="-140.0" y2="-103.92"/><line x1="160.0" y1="138.56" x2="180.0" y2="173.21"/><line x1="230.0" y1="-51.96" x2="260.0" y2="-34.64"/><line x1="-90.0" y1="121.24" x2="-60.0" y2="103.92"/><line x1="-20.0" y1="-69.28" x2="-20.0" y2="-34.64"/><line x1="200.0" y1="0.0" x2="220.0" y2="-34.64"/><line x1="140.0" y1="-34.64" x2="160.0" y2="-69.28"/><line x1="300.0" y1="103.92" x2="320.0" y2="138.56"/><line x1="40.0" y1="138.56" x2="40.0" y2="173.21"/><line x1="260.0" y1="103.92" x2="290.0" y2="121.24"/><line x1="-200.0" y1="-69.28" x2="-170.0" y2="-86.6"/><line x1="300.0" y1="103.92" x2="330.0" y2="121.24"/><line x1="240.0" y1="207.85" x2="280.0" y2="207.85"/><line x1="180.0" y1="34.64" x2="210.0" y2="51.96"/><line x1="-80.0" y1="0.0" x2="-50.0" y2="17.32"/><line x1="260.0" y1="103.92" x2="260.0" y2="138.56"/><line x1="130.0" y1="-17.32" x2="160.0" y2="0.0"/><line x1="100.0" y1="173.21" x2="140.0" y2="173.21"/><line x1="100.0" y1="173.21" x2="130.0" y2="155.88"/><line x1="0.0" y1="-69.28" x2="20.0" y2="-34.64"/><line x1="20.0" y1="34.64" x2="40.0" y2="69.28"/><line x1="-180.0" y1="-34.64" x2="-160.0" y2="0.0"/><line x1="240.0" y1="-69.28" x2="270.0" y2="-86.6"/><line x1="160.0" y1="0.0" x2="200.0" y2="0.0"/><line x1="160.0" y1="0.0" x2="180.0" y2="34.64"/><line x1="200.0" y1="0.0" x2="200.0" y2="34.64"/><line x1="60.0" y1="173.21" x2="80.0" y2="138.56"/><line x1="230.0" y1="121.24" x2="260.0" y2="103.92"/><line x1="120.0" y1="138.56" x2="140.0" y2="173.21"/><line x1="-40.0" y1="0.0" x2="-10.0" y2="-17.32"/><line x1="-100.0" y1="34.64" x2="-80.0" y2="69.28"/><line x1="300.0" y1="-34.64" x2="300.0" y2="0.0"/><line x1="300.0" y1="0.0" x2="300.0" y2="34.64"/><line x1="-80.0" y1="-103.92" x2="-80.0" y2="-69.28"/><line x1="320.0" y1="34.64" x2="320.0" y2="69.28"/><line x1="-90.0" y1="86.6" x2="-60.0" y2="103.92"/><line x1="50.0" y1="-51.96" x2="80.0" y2="-69.28"/><line x1="-30.0" y1="86.6" x2="0.0" y2="69.28"/><line x1="60.0" y1="138.56" x2="60.0" y2="173.21"/><line x1="360.0" y1="69.28" x2="380.0" y2="103.92"/><line x1="20.0" y1="103.92" x2="50.0" y2="86.6"/><line x1="-60.0" y1="34.64" x2="-60.0" y2="69.28"/><line x1="200.0" y1="69.28" x2="200.0" y2="103.92"/><line x1="190.0" y1="-51.96" x2="220.0" y2="-34.64"/><line x1="40.0" y1="138.56" x2="80.0" y2="138.56"/><line x1="-120.0" y1="0.0" x2="-100.0" y2="-34.64"/><line x1="80.0" y1="69.28" x2="110.0" y2="86.6"/><line x1="250.0" y1="-86.6" x2="280.0" y2="-69.28"/><line x1="-180.0" y1="-34.64" x2="-160.0" y2="-69.28"/><line x1="-200.0" y1="-69.28" x2="-170.0" y2="-51.96"/><line x1="-80.0" y1="69.28" x2="-50.0" y2="51.96"/><line x1="100.0" y1="103.92" x2="140.0" y2="103.92"/><line x1="420.0" y1="173.21" x2="420.0" y2="207.85"/><line x1="240.0" y1="-103.92" x2="240.0" y2="-69.28"/><line x1="260.0" y1="0.0" x2="260.0" y2="34.64"/><line x1="320.0" y1="0.0" x2="320.0" y2="34.64"/><line x1="120.0" y1="69.28" x2="150.0" y2="51.96"/><line x1="290.0" y1="190.53" x2="320.0" y2="207.85"/><line x1="-100.0" y1="-103.92" x2="-60.0" y2="-103.92"/><line x1="-60.0" y1="-103.92" x2="-30.0" y2="-86.6"/><line x1="20.0" y1="138.56" x2="20.0" y2="173.21"/><line x1="280.0" y1="0.0" x2="310.0" y2="17.32"/><line x1="-40.0" y1="0.0" x2="-20.0" y2="34.64"/><line x1="250.0" y1="86.6" x2="280.0" y2="69.28"/><line x1="-120.0" y1="-69.28" x2="-120.0" y2="-34.64"/><line x1="-110.0" y1="-86.6" x2="-80.0" y2="-69.28"/><line x1="340.0" y1="103.92" x2="360.0" y2="138.56"/><line x1="290.0" y1="-17.32" x2="320.0" y2="0.0"/><line x1="280.0" y1="0.0" x2="300.0" y2="-34.64"/><line x1="160.0" y1="-69.28" x2="200.0" y2="-69.28"/><line x1="-150.0" y1="-51.96" x2="-120.0" y2="-69.28"/><line x1="80.0" y1="138.56" x2="80.0" y2="173.21"/><line x1="120.0" y1="138.56" x2="120.0" y2="173.21"/><line x1="380.0" y1="173.21" x2="420.0" y2="173.21"/><line x1="50.0" y1="17.32" x2="80.0" y2="0.0"/><line x1="220.0" y1="103.92" x2="240.0" y2="138.56"/><line x1="340.0" y1="103.92" x2="370.0" y2="121.24"/><line x1="-100.0" y1="-69.28" x2="-100.0" y2="-34.64"/><line x1="60.0" y1="-34.64" x2="90.0" y2="-51.96"/><line x1="-40.0" y1="173.21" x2="-40.0" y2="207.85"/><line x1="30.0" y1="190.53" x2="60.0" y2="173.21"/><line x1="40.0" y1="207.85" x2="80.0" y2="207.85"/><line x1="220.0" y1="-34.64" x2="240.0" y2="0.0"/><line x1="340.0" y1="103.92" x2="340.0" y2="138.56"/><line x1="60.0" y1="34.64" x2="80.0" y2="69.28"/><line x1="-20.0" y1="173.21" x2="-20.0" y2="207.85"/><line x1="-100.0" y1="-34.64" x2="-80.0" y2="-69.28"/><line x1="280.0" y1="0.0" x2="280.0" y2="34.64"/><line x1="340.0" y1="34.64" x2="360.0" y2="69.28"/><line x1="190.0" y1="17.32" x2="220.0" y2="34.64"/><line x1="240.0" y1="34.64" x2="240.0" y2="69.28"/><line x1="120.0" y1="69.28" x2="140.0" y2="103.92"/><line x1="180.0" y1="103.92" x2="180.0" y2="138.56"/><line x1="20.0" y1="173.21" x2="50.0" y2="155.88"/><line x1="-20.0" y1="173.21" x2="20.0" y2="173.21"/><line x1="40.0" y1="0.0" x2="70.0" y2="-17.32"/><line x1="-80.0" y1="69.28" x2="-50.0" y2="86.6"/><line x1="40.0" y1="207.85" x2="70.0" y2="190.53"/><line x1="100.0" y1="-103.92" x2="120.0" y2="-69.28"/><line x1="-120.0" y1="-103.92" x2="-120.0" y2="-69.28"/><line x1="-140.0" y1="-34.64" x2="-100.0" y2="-34.64"/><line x1="390.0" y1="155.88" x2="420.0" y2="173.21"/><line x1="180.0" y1="34.64" x2="220.0" y2="34.64"/><line x1="-140.0" y1="0.0" x2="-140.0" y2="34.64"/><line x1="100.0" y1="173.21" x2="100.0" y2="207.85"/><line x1="240.0" y1="69.28" x2="240.0" y2="103.92"/><line x1="280.0" y1="0.0" x2="310.0" y2="-17.32"/><line x1="320.0" y1="138.56" x2="350.0" y2="155.88"/><line x1="60.0" y1="103.92" x2="80.0" y2="138.56"/><line x1="270.0" y1="-51.96" x2="300.0" y2="-34.64"/><line x1="40.0" y1="173.21" x2="40.0" y2="207.85"/><line x1="-180.0" y1="-34.64" x2="-150.0" y2="-17.32"/><line x1="60.0" y1="69.28" x2="60.0" y2="103.92"/><line x1="-140.0" y1="-34.64" x2="-120.0" y2="-69.28"/><line x1="180.0" y1="173.21" x2="210.0" y2="155.88"/><line x1="240.0" y1="138.56" x2="260.0" y2="173.21"/><line x1="-190.0" y1="-86.6" x2="-160.0" y2="-69.28"/><line x1="290.0" y1="51.96" x2="320.0" y2="69.28"/><line x1="40.0" y1="-69.28" x2="70.0" y2="-51.96"/><line x1="-120.0" y1="-69.28" x2="-100.0" y2="-103.92"/><line x1="-140.0" y1="34.64" x2="-120.0" y2="69.28"/><line x1="330.0" y1="86.6" x2="360.0" y2="69.28"/><line x1="300.0" y1="173.21" x2="320.0" y2="138.56"/><line x1="150.0" y1="-86.6" x2="180.0" y2="-103.92"/><line x1="160.0" y1="-69.28" x2="180.0" y2="-103.92"/><line x1="-20.0" y1="103.92" x2="20.0" y2="103.92"/><line x1="360.0" y1="138.56" x2="400.0" y2="138.56"/><line x1="-40.0" y1="138.56" x2="-20.0" y2="103.92"/><line x1="-40.0" y1="-69.28" x2="-40.0" y2="-34.64"/><line x1="-40.0" y1="-69.28" x2="0.0" y2="-69.28"/><line x1="300.0" y1="34.64" x2="340.0" y2="34.64"/><line x1="120.0" y1="69.28" x2="120.0" y2="103.92"/><line x1="-60.0" y1="173.21" x2="-30.0" y2="190.53"/><line x1="-140.0" y1="34.64" x2="-100.0" y2="34.64"/><line x1="130.0" y1="17.32" x2="160.0" y2="0.0"/><line x1="200.0" y1="138.56" x2="230.0" y2="155.88"/><line x1="70.0" y1="190.53" x2="100.0" y2="173.21"/><line x1="240.0" y1="-69.28" x2="260.0" y2="-34.64"/><line x1="60.0" y1="-34.64" x2="80.0" y2="-69.28"/><line x1="240.0" y1="103.92" x2="240.0" y2="138.56"/><line x1="120.0" y1="138.56" x2="150.0" y2="155.88"/><line x1="-200.0" y1="-103.92" x2="-200.0" y2="-69.28"/><line x1="300.0" y1="-34.64" x2="320.0" y2="0.0"/><line x1="140.0" y1="34.64" x2="160.0" y2="69.28"/><line x1="320.0" y1="138.56" x2="340.0" y2="173.21"/><line x1="200.0" y1="-69.28" x2="220.0" y2="-103.92"/><line x1="260.0" y1="-34.64" x2="290.0" y2="-17.32"/><line x1="240.0" y1="-34.64" x2="240.0" y2="0.0"/><line x1="180.0" y1="-34.64" x2="180.0" y2="0.0"/><line x1="260.0" y1="103.92" x2="300.0" y2="103.92"/><line x1="300.0" y1="34.64" x2="330.0" y2="17.32"/><line x1="180.0" y1="103.92" x2="210.0" y2="121.24"/><line x1="380.0" y1="173.21" x2="380.0" y2="207.85"/><line x1="260.0" y1="173.21" x2="280.0" y2="207.85"/><line x1="110.0" y1="17.32" x2="140.0" y2="34.64"/><line x1="100.0" y1="34.64" x2="120.0" y2="0.0"/><line x1="-60.0" y1="34.64" x2="-40.0" y2="69.28"/><line x1="260.0" y1="103.92" x2="290.0" y2="86.6"/><line x1="190.0" y1="155.88" x2="220.0" y2="173.21"/><line x1="160.0" y1="103.92" x2="160.0" y2="138.56"/><line x1="300.0" y1="103.92" x2="330.0" y2="86.6"/><line x1="400.0" y1="173.21" x2="400.0" y2="207.85"/><line x1="10.0" y1="86.6" x2="40.0" y2="69.28"/><line x1="320.0" y1="69.28" x2="350.0" y2="51.96"/><line x1="-10.0" y1="155.88" x2="20.0" y2="173.21"/><line x1="-20.0" y1="-103.92" x2="0.0" y2="-69.28"/><line x1="180.0" y1="34.64" x2="180.0" y2="69.28"/><line x1="20.0" y1="173.21" x2="20.0" y2="207.85"/><line x1="100.0" y1="34.64" x2="100.0" y2="69.28"/><line x1="240.0" y1="-69.28" x2="260.0" y2="-103.92"/><line x1="-110.0" y1="86.6" x2="-80.0" y2="69.28"/><line x1="60.0" y1="-103.92" x2="90.0" y2="-86.6"/><line x1="-180.0" y1="-103.92" x2="-180.0" y2="-69.28"/><line x1="20.0" y1="-34.64" x2="50.0" y2="-51.96"/><line x1="310.0" y1="51.96" x2="340.0" y2="34.64"/><line x1="-150.0" y1="17.32" x2="-120.0" y2="0.0"/><line x1="120.0" y1="173.21" x2="120.0" y2="207.85"/><line x1="0.0" y1="138.56" x2="40.0" y2="138.56"/><line x1="-60.0" y1="-34.64" x2="-40.0" y2="-69.28"/><line x1="200.0" y1="-34.64" x2="200.0" y2="0.0"/><line x1="210.0" y1="-86.6" x2="240.0" y2="-69.28"/><line x1="-120.0" y1="69.28" x2="-90.0" y2="51.96"/><line x1="120.0" y1="138.56" x2="150.0" y2="121.24"/><line x1="-60.0" y1="34.64" x2="-40.0" y2="0.0"/><line x1="-20.0" y1="-34.64" x2="0.0" y2="0.0"/><line x1="100.0" y1="173.21" x2="120.0" y2="138.56"/><line x1="220.0" y1="173.21" x2="250.0" y2="190.53"/><line x1="20.0" y1="-103.92" x2="40.0" y2="-69.28"/><line x1="110.0" y1="-86.6" x2="140.0" y2="-103.92"/><line x1="150.0" y1="-17.32" x2="180.0" y2="-34.64"/><line x1="-40.0" y1="138.56" x2="-40.0" y2="173.21"/><line x1="60.0" y1="173.21" x2="90.0" y2="190.53"/><line x1="210.0" y1="86.6" x2="240.0" y2="69.28"/><line x1="290.0" y1="121.24" x2="320.0" y2="138.56"/><line x1="-80.0" y1="0.0" x2="-60.0" y2="34.64"/><line x1="-20.0" y1="173.21" x2="10.0" y2="190.53"/><line x1="230.0" y1="190.53" x2="260.0" y2="173.21"/><line x1="-120.0" y1="-69.28" x2="-80.0" y2="-69.28"/><line x1="-110.0" y1="-17.32" x2="-80.0" y2="0.0"/><line x1="-120.0" y1="0.0" x2="-90.0" y2="17.32"/><line x1="320.0" y1="69.28" x2="350.0" y2="86.6"/><line x1="180.0" y1="103.92" x2="200.0" y2="138.56"/><line x1="260.0" y1="173.21" x2="290.0" y2="155.88"/><line x1="180.0" y1="-34.64" x2="220.0" y2="-34.64"/><line x1="20.0" y1="-34.64" x2="40.0" y2="0.0"/><line x1="-180.0" y1="-69.28" x2="-180.0" y2="-34.64"/><line x1="20.0" y1="34.64" x2="40.0" y2="0.0"/><line x1="-100.0" y1="34.64" x2="-70.0" y2="51.96"/><line x1="70.0" y1="51.96" x2="100.0" y2="34.64"/><line x1="120.0" y1="138.56" x2="160.0" y2="138.56"/><line x1="-70.0" y1="155.88" x2="-40.0" y2="138.56"/><line x1="400.0" y1="207.85" x2="420.0" y2="173.21"/><line x1="210.0" y1="155.88" x2="240.0" y2="138.56"/><line x1="200.0" y1="138.56" x2="220.0" y2="173.21"/><line x1="-80.0" y1="69.28" x2="-60.0" y2="103.92"/><line x1="160.0" y1="69.28" x2="160.0" y2="103.92"/><line x1="-120.0" y1="69.28" x2="-90.0" y2="86.6"/><line x1="40.0" y1="-69.28" x2="60.0" y2="-103.92"/><line x1="140.0" y1="-103.92" x2="160.0" y2="-69.28"/><line x1="200.0" y1="-69.28" x2="240.0" y2="-69.28"/><line x1="280.0" y1="-69.28" x2="280.0" y2="-34.64"/><line x1="-220.0" y1="-103.92" x2="-200.0" y2="-69.28"/><line x1="170.0" y1="121.24" x2="200.0" y2="138.56"/><line x1="240.0" y1="138.56" x2="270.0" y2="155.88"/><line x1="110.0" y1="-51.96" x2="140.0" y2="-34.64"/><line x1="360.0" y1="138.56" x2="390.0" y2="155.88"/><line x1="0.0" y1="-69.28" x2="30.0" y2="-86.6"/><line x1="-100.0" y1="-34.64" x2="-70.0" y2="-17.32"/><line x1="150.0" y1="51.96" x2="180.0" y2="34.64"/><line x1="-100.0" y1="-103.92" x2="-100.0" y2="-69.28"/><line x1="80.0" y1="69.28" x2="110.0" y2="51.96"/><line x1="270.0" y1="51.96" x2="300.0" y2="34.64"/><line x1="280.0" y1="-34.64" x2="280.0" y2="0.0"/><line x1="-40.0" y1="69.28" x2="-10.0" y2="51.96"/><line x1="140.0" y1="69.28" x2="140.0" y2="103.92"/><line x1="180.0" y1="69.28" x2="180.0" y2="103.92"/><line x1="100.0" y1="-103.92" x2="140.0" y2="-103.92"/><line x1="160.0" y1="-34.64" x2="160.0" y2="0.0"/><line x1="360.0" y1="173.21" x2="360.0" y2="207.85"/><line x1="140.0" y1="173.21" x2="170.0" y2="190.53"/><line x1="-70.0" y1="86.6" x2="-40.0" y2="69.28"/><line x1="310.0" y1="190.53" x2="340.0" y2="173.21"/><line x1="0.0" y1="0.0" x2="40.0" y2="0.0"/><line x1="260.0" y1="-69.28" x2="260.0" y2="-34.64"/><line x1="370.0" y1="121.24" x2="400.0" y2="138.56"/><line x1="160.0" y1="34.64" x2="160.0" y2="69.28"/><line x1="60.0" y1="34.64" x2="80.0" y2="0.0"/><line x1="-100.0" y1="103.92" x2="-80.0" y2="69.28"/><line x1="160.0" y1="-69.28" x2="190.0" y2="-51.96"/><line x1="360.0" y1="138.56" x2="390.0" y2="121.24"/><line x1="170.0" y1="-86.6" x2="200.0" y2="-69.28"/><line x1="-40.0" y1="69.28" x2="-20.0" y2="103.92"/><line x1="280.0" y1="138.56" x2="300.0" y2="173.21"/><line x1="20.0" y1="69.28" x2="20.0" y2="103.92"/><line x1="20.0" y1="103.92" x2="60.0" y2="103.92"/><line x1="260.0" y1="34.64" x2="290.0" y2="17.32"/><line x1="240.0" y1="207.85" x2="270.0" y2="190.53"/><line x1="180.0" y1="34.64" x2="200.0" y2="69.28"/><line x1="-140.0" y1="34.64" x2="-120.0" y2="0.0"/><line x1="280.0" y1="34.64" x2="280.0" y2="69.28"/><line x1="190.0" y1="86.6" x2="220.0" y2="103.92"/><line x1="140.0" y1="103.92" x2="140.0" y2="138.56"/><line x1="20.0" y1="34.64" x2="60.0" y2="34.64"/><line x1="-180.0" y1="-103.92" x2="-160.0" y2="-69.28"/><line x1="270.0" y1="121.24" x2="300.0" y2="103.92"/><line x1="90.0" y1="51.96" x2="120.0" y2="69.28"/><line x1="-80.0" y1="0.0" x2="-50.0" y2="-17.32"/><line x1="220.0" y1="34.64" x2="220.0" y2="69.28"/><line x1="190.0" y1="51.96" x2="220.0" y2="34.64"/><line x1="180.0" y1="103.92" x2="210.0" y2="86.6"/><line x1="-50.0" y1="-17.32" x2="-20.0" y2="-34.64"/><line x1="-140.0" y1="-103.92" x2="-140.0" y2="-69.28"/><line x1="80.0" y1="138.56" x2="110.0" y2="155.88"/><line x1="-10.0" y1="-51.96" x2="20.0" y2="-34.64"/><line x1="160.0" y1="69.28" x2="190.0" y2="51.96"/><line x1="340.0" y1="173.21" x2="360.0" y2="138.56"/><line x1="60.0" y1="173.21" x2="100.0" y2="173.21"/><line x1="100.0" y1="-34.64" x2="140.0" y2="-34.64"/><line x1="-10.0" y1="51.96" x2="20.0" y2="34.64"/><line x1="60.0" y1="103.92" x2="60.0" y2="138.56"/><line x1="160.0" y1="207.85" x2="190.0" y2="190.53"/><line x1="120.0" y1="207.85" x2="160.0" y2="207.85"/><line x1="140.0" y1="-34.64" x2="140.0" y2="0.0"/><line x1="-80.0" y1="138.56" x2="-40.0" y2="138.56"/><line x1="60.0" y1="-34.64" x2="60.0" y2="0.0"/><line x1="-50.0" y1="51.96" x2="-20.0" y2="34.64"/><line x1="180.0" y1="-103.92" x2="220.0" y2="-103.92"/><line x1="270.0" y1="-17.32" x2="300.0" y2="-34.64"/><line x1="-20.0" y1="34.64" x2="0.0" y2="69.28"/><line x1="300.0" y1="34.64" x2="320.0" y2="69.28"/><line x1="40.0" y1="69.28" x2="40.0" y2="103.92"/><line x1="190.0" y1="-17.32" x2="220.0" y2="-34.64"/><line x1="20.0" y1="-103.92" x2="60.0" y2="-103.92"/><line x1="230.0" y1="-86.6" x2="260.0" y2="-103.92"/><line x1="260.0" y1="-103.92" x2="260.0" y2="-69.28"/><line x1="-140.0" y1="-103.92" x2="-100.0" y2="-103.92"/><line x1="70.0" y1="-17.32" x2="100.0" y2="-34.64"/><line x1="320.0" y1="69.28" x2="340.0" y2="103.92"/><line x1="240.0" y1="0.0" x2="270.0" y2="17.32"/><line x1="-40.0" y1="-69.28" x2="-10.0" y2="-51.96"/><line x1="140.0" y1="34.64" x2="160.0" y2="0.0"/><line x1="380.0" y1="173.21" x2="410.0" y2="190.53"/><line x1="100.0" y1="-34.64" x2="120.0" y2="-69.28"/><line x1="340.0" y1="173.21" x2="380.0" y2="173.21"/><line x1="160.0" y1="0.0" x2="180.0" y2="-34.64"/><line x1="240.0" y1="-69.28" x2="240.0" y2="-34.64"/><line x1="400.0" y1="207.85" x2="430.0" y2="190.53"/><line x1="160.0" y1="69.28" x2="190.0" y2="86.6"/><line x1="260.0" y1="-34.64" x2="260.0" y2="0.0"/><line x1="80.0" y1="138.56" x2="110.0" y2="121.24"/><line x1="100.0" y1="69.28" x2="100.0" y2="103.92"/><line x1="0.0" y1="207.85" x2="40.0" y2="207.85"/><line x1="320.0" y1="207.85" x2="350.0" y2="190.53"/><line x1="-100.0" y1="103.92" x2="-70.0" y2="121.24"/><line x1="170.0" y1="155.88" x2="200.0" y2="138.56"/><line x1="140.0" y1="34.64" x2="140.0" y2="69.28"/><line x1="270.0" y1="86.6" x2="300.0" y2="103.92"/><line x1="150.0" y1="17.32" x2="180.0" y2="34.64"/><line x1="200.0" y1="34.64" x2="200.0" y2="69.28"/><line x1="-100.0" y1="-103.92" x2="-80.0" y2="-69.28"/><line x1="140.0" y1="0.0" x2="140.0" y2="34.64"/><line x1="-10.0" y1="121.24" x2="20.0" y2="103.92"/><line x1="100.0" y1="173.21" x2="130.0" y2="190.53"/><line x1="260.0" y1="34.64" x2="260.0" y2="69.28"/><line x1="60.0" y1="0.0" x2="60.0" y2="34.64"/><line x1="300.0" y1="34.64" x2="300.0" y2="69.28"/><line x1="70.0" y1="86.6" x2="100.0" y2="103.92"/><line x1="120.0" y1="-69.28" x2="160.0" y2="-69.28"/><line x1="140.0" y1="173.21" x2="160.0" y2="207.85"/><line x1="110.0" y1="51.96" x2="140.0" y2="34.64"/><line x1="120.0" y1="0.0" x2="150.0" y2="17.32"/><line x1="320.0" y1="173.21" x2="320.0" y2="207.85"/><line x1="30.0" y1="51.96" x2="60.0" y2="34.64"/><line x1="100.0" y1="103.92" x2="120.0" y2="69.28"/><line x1="-20.0" y1="-34.64" x2="0.0" y2="-69.28"/><line x1="40.0" y1="69.28" x2="80.0" y2="69.28"/><line x1="-40.0" y1="0.0" x2="-20.0" y2="-34.64"/><line x1="310.0" y1="121.24" x2="340.0" y2="103.92"/><line x1="250.0" y1="155.88" x2="280.0" y2="138.56"/><line x1="80.0" y1="103.92" x2="80.0" y2="138.56"/><line x1="120.0" y1="0.0" x2="160.0" y2="0.0"/><line x1="-180.0" y1="-34.64" x2="-150.0" y2="-51.96"/><line x1="110.0" y1="-17.32" x2="140.0" y2="-34.64"/><line x1="40.0" y1="0.0" x2="80.0" y2="0.0"/><line x1="240.0" y1="69.28" x2="280.0" y2="69.28"/><line x1="30.0" y1="-17.32" x2="60.0" y2="-34.64"/><line x1="-60.0" y1="103.92" x2="-20.0" y2="103.92"/><line x1="-60.0" y1="138.56" x2="-60.0" y2="173.21"/><line x1="20.0" y1="-34.64" x2="40.0" y2="-69.28"/><line x1="-60.0" y1="173.21" x2="-40.0" y2="207.85"/><line x1="200.0" y1="207.85" x2="230.0" y2="190.53"/><line x1="220.0" y1="-34.64" x2="240.0" y2="-69.28"/><line x1="-90.0" y1="-86.6" x2="-60.0" y2="-103.92"/><line x1="90.0" y1="17.32" x2="120.0" y2="0.0"/><line x1="-140.0" y1="-34.64" x2="-110.0" y2="-17.32"/><line x1="-80.0" y1="69.28" x2="-60.0" y2="34.64"/><line x1="120.0" y1="207.85" x2="150.0" y2="190.53"/><line x1="360.0" y1="207.85" x2="390.0" y2="190.53"/><line x1="80.0" y1="0.0" x2="100.0" y2="-34.64"/><line x1="60.0" y1="-103.92" x2="80.0" y2="-69.28"/><line x1="120.0" y1="69.28" x2="140.0" y2="34.64"/><line x1="240.0" y1="0.0" x2="280.0" y2="0.0"/><line x1="220.0" y1="34.64" x2="240.0" y2="69.28"/><line x1="310.0" y1="86.6" x2="340.0" y2="103.92"/><line x1="-10.0" y1="86.6" x2="20.0" y2="103.92"/><line x1="200.0" y1="138.56" x2="230.0" y2="121.24"/><line x1="0.0" y1="138.56" x2="30.0" y2="155.88"/><line x1="80.0" y1="138.56" x2="100.0" y2="173.21"/><line x1="60.0" y1="34.64" x2="60.0" y2="69.28"/><line x1="70.0" y1="121.24" x2="100.0" y2="103.92"/><line x1="-140.0" y1="-103.92" x2="-120.0" y2="-69.28"/><line x1="140.0" y1="103.92" x2="180.0" y2="103.92"/><line x1="20.0" y1="173.21" x2="50.0" y2="190.53"/><line x1="-10.0" y1="-17.32" x2="20.0" y2="-34.64"/><line x1="260.0" y1="-34.64" x2="290.0" y2="-51.96"/><line x1="170.0" y1="86.6" x2="200.0" y2="69.28"/><line x1="300.0" y1="173.21" x2="330.0" y2="190.53"/><line x1="100.0" y1="-103.92" x2="100.0" y2="-69.28"/><line x1="-160.0" y1="0.0" x2="-130.0" y2="17.32"/><line x1="80.0" y1="0.0" x2="110.0" y2="17.32"/><line x1="130.0" y1="121.24" x2="160.0" y2="138.56"/><line x1="40.0" y1="69.28" x2="60.0" y2="103.92"/><line x1="200.0" y1="69.28" x2="230.0" y2="86.6"/><line x1="-50.0" y1="155.88" x2="-20.0" y2="173.21"/><line x1="180.0" y1="173.21" x2="220.0" y2="173.21"/><line x1="-30.0" y1="190.53" x2="0.0" y2="207.85"/><line x1="20.0" y1="103.92" x2="40.0" y2="69.28"/><line x1="0.0" y1="-69.28" x2="20.0" y2="-103.92"/><line x1="-20.0" y1="103.92" x2="0.0" y2="69.28"/><line x1="180.0" y1="173.21" x2="200.0" y2="138.56"/><line x1="80.0" y1="69.28" x2="80.0" y2="103.92"/><line x1="-140.0" y1="-34.64" x2="-110.0" y2="-51.96"/><line x1="240.0" y1="138.56" x2="240.0" y2="173.21"/><line x1="-140.0" y1="34.64" x2="-110.0" y2="51.96"/><line x1="-100.0" y1="34.64" x2="-80.0" y2="0.0"/><line x1="180.0" y1="34.64" x2="210.0" y2="17.32"/><line x1="50.0" y1="51.96" x2="80.0" y2="69.28"/><line x1="50.0" y1="155.88" x2="80.0" y2="138.56"/><line x1="270.0" y1="155.88" x2="300.0" y2="173.21"/><line x1="360.0" y1="138.56" x2="360.0" y2="173.21"/><line x1="0.0" y1="138.56" x2="30.0" y2="121.24"/><line x1="-60.0" y1="103.92" x2="-30.0" y2="121.24"/><line x1="60.0" y1="173.21" x2="80.0" y2="207.85"/><line x1="150.0" y1="155.88" x2="180.0" y2="173.21"/><line x1="-110.0" y1="51.96" x2="-80.0" y2="69.28"/><line x1="150.0" y1="-51.96" x2="180.0" y2="-34.64"/><line x1="-120.0" y1="-69.28" x2="-90.0" y2="-86.6"/><line x1="370.0" y1="155.88" x2="400.0" y2="138.56"/><line x1="160.0" y1="-69.28" x2="190.0" y2="-86.6"/><line x1="160.0" y1="-69.28" x2="160.0" y2="-34.64"/><line x1="290.0" y1="155.88" x2="320.0" y2="138.56"/><line x1="-60.0" y1="0.0" x2="-60.0" y2="34.64"/><line x1="-120.0" y1="0.0" x2="-90.0" y2="-17.32"/><line x1="360.0" y1="207.85" x2="380.0" y2="173.21"/><line x1="40.0" y1="-69.28" x2="70.0" y2="-86.6"/><line x1="180.0" y1="-103.92" x2="200.0" y2="-69.28"/><line x1="140.0" y1="34.64" x2="180.0" y2="34.64"/><line x1="110.0" y1="155.88" x2="140.0" y2="173.21"/><line x1="-100.0" y1="34.64" x2="-70.0" y2="17.32"/><line x1="260.0" y1="34.64" x2="300.0" y2="34.64"/><line x1="-140.0" y1="34.64" x2="-110.0" y2="17.32"/><line x1="180.0" y1="-103.92" x2="180.0" y2="-69.28"/><line x1="-20.0" y1="173.21" x2="0.0" y2="138.56"/><line x1="160.0" y1="0.0" x2="190.0" y2="17.32"/><line x1="-100.0" y1="103.92" x2="-70.0" y2="86.6"/><line x1="-160.0" y1="-69.28" x2="-130.0" y2="-86.6"/><line x1="10.0" y1="190.53" x2="40.0" y2="207.85"/><line x1="180.0" y1="-34.64" x2="200.0" y2="0.0"/><line x1="240.0" y1="138.56" x2="270.0" y2="121.24"/><line x1="-50.0" y1="-51.96" x2="-20.0" y2="-34.64"/><line x1="280.0" y1="69.28" x2="300.0" y2="103.92"/><line x1="100.0" y1="-34.64" x2="100.0" y2="0.0"/><line x1="20.0" y1="173.21" x2="40.0" y2="138.56"/><line x1="-30.0" y1="-17.32" x2="0.0" y2="0.0"/><line x1="40.0" y1="103.92" x2="40.0" y2="138.56"/><line x1="350.0" y1="155.88" x2="380.0" y2="173.21"/><line x1="80.0" y1="207.85" x2="110.0" y2="190.53"/><line x1="120.0" y1="-34.64" x2="120.0" y2="0.0"/><line x1="-20.0" y1="103.92" x2="10.0" y2="121.24"/><line x1="180.0" y1="-34.64" x2="210.0" y2="-17.32"/><line x1="20.0" y1="-103.92" x2="20.0" y2="-69.28"/><line x1="100.0" y1="0.0" x2="100.0" y2="34.64"/><line x1="-20.0" y1="103.92" x2="-20.0" y2="138.56"/><line x1="40.0" y1="138.56" x2="60.0" y2="103.92"/><line x1="180.0" y1="103.92" x2="200.0" y2="69.28"/><line x1="80.0" y1="-103.92" x2="80.0" y2="-69.28"/><line x1="-80.0" y1="0.0" x2="-80.0" y2="34.64"/><line x1="-40.0" y1="-69.28" x2="-10.0" y2="-86.6"/><line x1="60.0" y1="103.92" x2="80.0" y2="69.28"/><line x1="-160.0" y1="-69.28" x2="-130.0" y2="-51.96"/><line x1="320.0" y1="138.56" x2="350.0" y2="121.24"/><line x1="200.0" y1="0.0" x2="220.0" y2="34.64"/><line x1="260.0" y1="173.21" x2="290.0" y2="190.53"/><line x1="180.0" y1="-103.92" x2="210.0" y2="-86.6"/><line x1="200.0" y1="-103.92" x2="200.0" y2="-69.28"/><line x1="130.0" y1="-86.6" x2="160.0" y2="-69.28"/><line x1="220.0" y1="-69.28" x2="220.0" y2="-34.64"/><line x1="120.0" y1="103.92" x2="120.0" y2="138.56"/><line x1="-50.0" y1="17.32" x2="-20.0" y2="34.64"/><line x1="60.0" y1="-69.28" x2="60.0" y2="-34.64"/><line x1="0.0" y1="0.0" x2="20.0" y2="34.64"/><line x1="220.0" y1="-103.92" x2="220.0" y2="-69.28"/><line x1="30.0" y1="121.24" x2="60.0" y2="103.92"/><line x1="100.0" y1="-69.28" x2="100.0" y2="-34.64"/><line x1="200.0" y1="-69.28" x2="200.0" y2="-34.64"/><line x1="140.0" y1="-103.92" x2="140.0" y2="-69.28"/><line x1="-20.0" y1="34.64" x2="20.0" y2="34.64"/><line x1="120.0" y1="34.64" x2="120.0" y2="69.28"/><line x1="-20.0" y1="-103.92" x2="20.0" y2="-103.92"/><line x1="300.0" y1="138.56" x2="300.0" y2="173.21"/><line x1="120.0" y1="0.0" x2="120.0" y2="34.64"/><line x1="300.0" y1="103.92" x2="320.0" y2="69.28"/><line x1="180.0" y1="138.56" x2="180.0" y2="173.21"/><line x1="180.0" y1="-34.64" x2="210.0" y2="-51.96"/><line x1="40.0" y1="0.0" x2="40.0" y2="34.64"/><line x1="90.0" y1="190.53" x2="120.0" y2="207.85"/><line x1="400.0" y1="207.85" x2="440.0" y2="207.85"/><line x1="-210.0" y1="-86.6" x2="-180.0" y2="-103.92"/><line x1="0.0" y1="0.0" x2="30.0" y2="17.32"/><line x1="300.0" y1="173.21" x2="300.0" y2="207.85"/><line x1="80.0" y1="-69.28" x2="100.0" y2="-103.92"/><line x1="60.0" y1="-34.64" x2="100.0" y2="-34.64"/><line x1="320.0" y1="0.0" x2="340.0" y2="34.64"/><line x1="80.0" y1="69.28" x2="120.0" y2="69.28"/><line x1="10.0" y1="-17.32" x2="40.0" y2="0.0"/><line x1="140.0" y1="103.92" x2="170.0" y2="121.24"/><line x1="-70.0" y1="-17.32" x2="-40.0" y2="0.0"/><line x1="-120.0" y1="0.0" x2="-100.0" y2="34.64"/></g></svg>